# xmcd
#
# Track frame offsets:
#	150
#	10369
#	21421
#	31550
#	41531
#	50782
#	60512
#	69232
#	80712
#	89230
#	100017
#	109201
#	120342
#	131096
#	143307
#	154624
#	163263
#	176722
#	187878
#	199035
#	209019
#	220673
#
# Disc length: 3067 seconds
#
# Revision: 1
# Processed by: cddbd v1.5.2PL0 Copyright (c) Steve Scherf et al.
# Submitted via: audiograbber 1.83.01
#
DISCID=320bf916
DTITLE=George Jones - 22 Early Starday Recordings
DYEAR=1900
DGENRE=
TTITLE0=Why Baby Why
TTITLE1=Tall Tall Trees
TTITLE2=I'm Regged But I'm Right
TTITLE3=Heartbreak Hotel
TTITLE4=Jesus Wants Me
TTITLE5=Too Much Water
TTITLE6=If I Don't Love You
TTITLE7=You Gotta Be My Baby
TTITLE8=Hold Everything
TTITLE9=No Money In This Deal
TTITLE10=Maybe Little Baby
TTITLE11=Accidentally On Purpose
TTITLE12=How Come It
TTITLE13=Take The Devil Out Of Me
TTITLE14=Eskimo Pie
TTITLE15=That's The Way I Feel
TTITLE16=Taggin' Along
TTITLE17=Gonna Come Get You
TTITLE18=Nothing Can Stop Me
TTITLE19=Rock It
TTITLE20=Mexican Boogie
TTITLE21=You All Goodnight
EXTD=
EXTT0=
EXTT1=
EXTT2=
EXTT3=
EXTT4=
EXTT5=
EXTT6=
EXTT7=
EXTT8=
EXTT9=
EXTT10=
EXTT11=
EXTT12=
EXTT13=
EXTT14=
EXTT15=
EXTT16=
EXTT17=
EXTT18=
EXTT19=
EXTT20=
EXTT21=
PLAYORDER=
